<svg xmlns="http://www.w3.org/2000/svg" xmlns:xlink="http://www.w3.org/1999/xlink" width="500" zoomAndPan="magnify" viewBox="0 0 375 374.999991" height="500" preserveAspectRatio="xMidYMid meet" version="1.0"><defs><g/><clipPath id="9aa96ea066"><path d="M 58 308 L 64 308 L 64 313.6875 L 58 313.6875 Z M 58 308 " clip-rule="nonzero"/></clipPath></defs><path fill="#141415" d="M 203.230469 248.058594 C 200.375 248.171875 202.820312 247.722656 200.148438 247.984375 C 185.691406 249.421875 183.132812 250.019531 179.695312 249.535156 C 183.914062 247.984375 211.75 242.738281 230.335938 241.261719 C 234.019531 240.964844 241.621094 240.609375 242.59375 244.175781 C 248.027344 264.234375 37.417969 297.140625 55.257812 281.714844 C 60.191406 277.457031 124.882812 263.242188 131.515625 264.515625 C 78.332031 280.371094 68.207031 279.699219 76.292969 280.464844 C 80.984375 280.910156 148.121094 274.75 203.550781 258.707031 C 205.902344 258.035156 238.128906 248.640625 237.101562 245.6875 C 236.425781 243.785156 211.488281 246.902344 206.351562 247.332031 C 205.324219 247.40625 204.183594 247.460938 203.230469 248.058594 Z M 203.230469 248.058594 " fill-opacity="1" fill-rule="nonzero"/><path fill="#141415" d="M 314.851562 168.128906 C 316.757812 167.941406 315.878906 168.59375 317.707031 167.976562 C 319.257812 167.457031 320.808594 167.585938 322.640625 167.714844 C 321.539062 168.332031 278.140625 180.566406 274.5 183.3125 C 261.574219 186.242188 212.234375 207.214844 194.375 223.390625 C 194.058594 223.6875 193.273438 223.761719 193.535156 224.359375 C 194.488281 226.5625 209.9375 220.925781 212.570312 221.167969 C 212.460938 221.410156 212.441406 221.578125 212.367188 221.597656 C 208.6875 222.960938 190.847656 230.242188 189.203125 226.527344 C 186.8125 221.109375 205.082031 210.429688 210.21875 207.367188 C 256.808594 179.59375 313.113281 168.988281 314.851562 168.128906 Z M 314.851562 168.128906 " fill-opacity="1" fill-rule="nonzero"/><path fill="#141415" d="M 314.886719 216.964844 C 305.621094 218.925781 302.949219 217.9375 276.332031 221.707031 C 264.972656 223.316406 259.796875 223.988281 259.535156 221.707031 C 258.957031 216.535156 279.46875 212.746094 289.875 213.0625 C 291.554688 213.117188 293.105469 213.210938 294.003906 214.984375 C 294.449219 215.882812 295.496094 215.621094 296.320312 215.601562 C 302.539062 215.507812 308.777344 215.789062 314.886719 216.964844 Z M 314.886719 216.964844 " fill-opacity="1" fill-rule="nonzero"/><path fill="#141415" d="M 7.304688 201.332031 C 14.367188 201.351562 14.554688 211.921875 7.195312 211.867188 C 0.0585938 211.828125 0.28125 201.316406 7.304688 201.332031 Z M 7.304688 201.332031 " fill-opacity="1" fill-rule="nonzero"/><path fill="#141415" d="M 8.203125 289.539062 C 11.042969 287.632812 19.785156 283.878906 22.679688 283.84375 C 24.882812 283.804688 26.0625 285.785156 23.894531 287.464844 C 22.042969 288.886719 14.273438 291.910156 12.089844 292.714844 C 7.492188 294.433594 5.679688 291.238281 8.203125 289.539062 Z M 8.203125 289.539062 " fill-opacity="1" fill-rule="nonzero"/><path fill="#141415" d="M 56.324219 118.710938 C 56.285156 112.398438 65.796875 112.269531 65.871094 118.582031 C 65.945312 124.59375 56.363281 124.949219 56.324219 118.710938 Z M 56.324219 118.710938 " fill-opacity="1" fill-rule="nonzero"/><path fill="#141415" d="M 265.085938 178.941406 C 264.019531 179.054688 263.476562 178.417969 262.992188 177.691406 C 262.507812 176.921875 262.878906 176.289062 263.402344 175.765625 C 265.589844 173.5625 268.203125 172.011719 271.210938 171.132812 C 273.246094 170.535156 274.40625 173.019531 273.339844 174.179688 C 271.101562 176.605469 268.183594 177.949219 265.085938 178.941406 Z M 265.085938 178.941406 " fill-opacity="1" fill-rule="nonzero"/><path fill="#141415" d="M 277.824219 259.675781 C 279.9375 259.566406 280.796875 261.863281 279.523438 263.019531 C 268.78125 272.730469 265.53125 263.1875 277.824219 259.675781 Z M 277.824219 259.675781 " fill-opacity="1" fill-rule="nonzero"/><path fill="#141415" d="M 174.78125 300.203125 C 174.574219 300.183594 171.566406 300.242188 171.007812 297.570312 C 170.109375 293.347656 177.152344 292.320312 178.851562 295.460938 C 179.433594 296.523438 179.375 297.664062 178.816406 298.726562 C 178.21875 299.847656 177.132812 300.242188 174.78125 300.203125 Z M 174.78125 300.203125 " fill-opacity="1" fill-rule="nonzero"/><path fill="#141415" d="M 97.890625 152.105469 C 99.871094 152.066406 101.757812 153.785156 101.773438 155.613281 C 101.792969 157.371094 99.980469 159.070312 98.078125 159.089844 C 93.332031 159.125 93.480469 152.179688 97.890625 152.105469 Z M 97.890625 152.105469 " fill-opacity="1" fill-rule="nonzero"/><path fill="#141415" d="M 145.191406 107.933594 C 142.742188 107.933594 141.679688 106.90625 141.695312 104.609375 C 141.714844 102.5 142.890625 101.398438 145.113281 101.378906 C 149.859375 101.34375 150.140625 107.953125 145.191406 107.933594 Z M 145.191406 107.933594 " fill-opacity="1" fill-rule="nonzero"/><path fill="#141415" d="M 28.601562 301.101562 C 33.140625 301.15625 33.03125 307.917969 28.378906 307.824219 C 24.34375 307.75 23.761719 301.042969 28.601562 301.101562 Z M 28.601562 301.101562 " fill-opacity="1" fill-rule="nonzero"/><path fill="#141415" d="M 133.476562 236.332031 C 135.25 235.773438 136.109375 234.128906 137.4375 233.027344 C 142.199219 229.03125 146.816406 224.882812 151.503906 220.792969 C 151.726562 220.605469 151.914062 220.34375 152.363281 220.4375 C 152.570312 221.296875 151.820312 221.671875 151.355469 222.121094 C 138.503906 234.390625 142.539062 230.671875 129.3125 241.523438 C 127.367188 243.109375 129.554688 241.804688 126.714844 243.820312 L 126.171875 242.851562 Z M 133.476562 236.332031 " fill-opacity="1" fill-rule="nonzero"/><path fill="#141415" d="M 17.039062 260.574219 C 12.722656 260.535156 12.761719 254.28125 17.074219 254.390625 C 18.757812 254.429688 20.214844 255.921875 20.25 257.660156 C 20.289062 259.210938 18.792969 260.59375 17.039062 260.574219 Z M 17.039062 260.574219 " fill-opacity="1" fill-rule="nonzero"/><path fill="#141415" d="M 89.914062 301.285156 C 89.875 297.328125 95.40625 297.347656 95.460938 301.082031 C 95.515625 304.742188 89.96875 304.929688 89.914062 301.285156 Z M 89.914062 301.285156 " fill-opacity="1" fill-rule="nonzero"/><path fill="#141415" d="M 254.34375 211.550781 C 254.378906 212.949219 253.128906 214.277344 251.632812 214.386719 C 250.363281 214.5 248.550781 212.746094 248.589844 211.4375 C 248.609375 210.277344 250.101562 208.878906 251.371094 208.804688 C 252.867188 208.730469 254.304688 210.054688 254.34375 211.550781 Z M 254.34375 211.550781 " fill-opacity="1" fill-rule="nonzero"/><path fill="#141415" d="M 131.367188 236.445312 C 129.496094 236.183594 127.835938 237.789062 148.664062 219.839844 C 148.980469 219.5625 149.335938 219.375 150.085938 219.636719 C 141.25 228.972656 133.515625 234.351562 131.367188 236.445312 Z M 131.367188 236.445312 " fill-opacity="1" fill-rule="nonzero"/><path fill="#141415" d="M 246.851562 274.242188 C 242.386719 274.261719 244.292969 268.882812 246.832031 268.867188 C 249.578125 268.828125 251.09375 274.207031 246.851562 274.242188 Z M 246.851562 274.242188 " fill-opacity="1" fill-rule="nonzero"/><path fill="#141415" d="M 67.140625 163.496094 C 68.46875 163.476562 69.71875 164.523438 69.757812 165.71875 C 69.792969 166.578125 68.113281 168.144531 67.140625 168.015625 C 64.058594 167.605469 64.078125 163.53125 67.140625 163.496094 Z M 67.140625 163.496094 " fill-opacity="1" fill-rule="nonzero"/><g clip-path="url(#9aa96ea066)"><path fill="#141415" d="M 63.574219 311.148438 C 63.589844 312.210938 62.191406 313.6875 61.144531 313.539062 C 58.492188 313.144531 58.023438 309.484375 61.089844 308.832031 C 62.171875 308.609375 63.574219 310.027344 63.574219 311.148438 Z M 63.574219 311.148438 " fill-opacity="1" fill-rule="nonzero"/></g><path fill="#141415" d="M 47.265625 233.921875 C 47.246094 235.773438 42.6875 236.574219 42.648438 233.511719 C 42.59375 230.316406 47.300781 229.980469 47.265625 233.921875 Z M 47.265625 233.921875 " fill-opacity="1" fill-rule="nonzero"/><path fill="#141415" d="M 71.828125 198.570312 C 74.222656 198.363281 74.742188 202.230469 71.679688 202.882812 C 70.785156 203.070312 69.289062 201.558594 69.234375 200.605469 C 69.175781 199.539062 70.355469 198.570312 71.828125 198.570312 Z M 71.828125 198.570312 " fill-opacity="1" fill-rule="nonzero"/><path fill="#141415" d="M 98.132812 198.605469 C 98.152344 198.585938 164.75 137.703125 181.597656 120.726562 C 236.6875 65.222656 258.9375 52.992188 261.777344 47.890625 C 254.773438 51.03125 222.941406 73.476562 218.53125 79.25 C 217.933594 79.621094 216.4375 80.035156 216.101562 81.582031 C 215.933594 81.75 214.550781 81.734375 212.703125 84.644531 C 212.535156 84.8125 212.515625 84.402344 211.730469 85.152344 C 208.03125 88.71875 199.8125 96.394531 199.980469 97.253906 C 199.699219 97.625 195.683594 100.277344 193.441406 105.207031 C 187.109375 119.160156 173.679688 105.488281 181.636719 99.492188 C 190.359375 92.9375 211.453125 66.136719 243.5625 46.902344 C 272.910156 29.328125 270.707031 31.867188 274.386719 28.730469 C 278.648438 25.089844 282.886719 25.929688 285.222656 29.273438 C 286.773438 31.511719 286.175781 29.851562 299.851562 22.210938 C 304.667969 19.523438 310.03125 15.9375 313.917969 20.101562 C 319.800781 26.433594 325.441406 31.34375 322.9375 36.292969 C 315.039062 51.925781 296.226562 69.292969 285.054688 80.574219 C 272.277344 93.5 224.003906 140.597656 211.863281 150.234375 C 195.253906 163.421875 198.1875 160.339844 119.578125 233.363281 C 117.839844 234.988281 115.972656 234.96875 114.347656 233.230469 C 113.300781 232.109375 112.480469 232.261719 111.433594 233.082031 C 96.113281 245.164062 99.179688 250.863281 94.078125 251.609375 C 75.527344 254.316406 51.824219 267.855469 46.050781 273.703125 C 45.527344 274.226562 44.722656 274.765625 43.957031 274.039062 C 43.117188 273.234375 43.675781 272.449219 44.238281 271.835938 C 54.550781 260.421875 68.746094 229.085938 70.222656 225.109375 C 72.335938 219.355469 80.515625 219.972656 90.902344 210.652344 C 91.761719 209.886719 92.324219 209.175781 91.667969 208.039062 C 90.25 205.496094 92.304688 204.171875 98.132812 198.605469 Z M 194.636719 120.375 C 194.695312 119.832031 194.488281 119.550781 193.910156 119.664062 L 192.601562 118.414062 C 192.527344 117.535156 191.835938 117.609375 191.292969 117.722656 C 190.714844 117.851562 190.398438 118.261719 190.714844 118.898438 C 191.109375 119.886719 191.257812 120.726562 192.488281 120.710938 C 192.582031 120.800781 192.453125 122.109375 194.582031 122.949219 C 194.621094 122.988281 194.546875 123.902344 195.664062 124.035156 C 195.742188 124.109375 195.871094 125.398438 197.441406 125.863281 C 197.515625 125.9375 197.292969 126.59375 198.152344 126.609375 C 199.457031 129.375 199.234375 127.824219 202.96875 131.933594 C 203.4375 133.558594 204.203125 133.351562 205.210938 134.378906 C 205.191406 135.257812 205.714844 135.707031 206.480469 135.949219 L 207.339844 136.921875 C 207.25 137.945312 208.257812 137.984375 208.351562 138.117188 C 208.742188 139.273438 209.714844 140.019531 210.5 140.859375 C 211.113281 141.515625 211.582031 143.195312 212.589844 142.464844 C 213.65625 141.699219 212.199219 140.710938 211.695312 139.945312 C 210.648438 138.339844 209.957031 136.433594 208.199219 135.371094 C 208.183594 135.277344 208.125 135.203125 208.070312 135.109375 C 208.238281 134.007812 207.191406 134.007812 207.097656 133.875 C 206.726562 132.230469 205.828125 132.195312 204.820312 131.128906 C 204.78125 130.269531 204.203125 129.878906 203.511719 129.582031 L 202.988281 129 C 202.671875 127.917969 202.015625 127.152344 200.933594 126.742188 L 198.226562 123.996094 C 198.320312 123.4375 198.09375 123.175781 197.515625 123.269531 L 197.140625 122.914062 C 197.292969 121.980469 196.394531 122.167969 196.414062 122.183594 C 196.488281 121.644531 196.28125 121.363281 195.703125 121.457031 L 195.347656 121.082031 C 195.535156 120.113281 194.636719 120.429688 194.636719 120.375 Z M 200 109.878906 C 199.214844 109.878906 199.253906 110.605469 199.269531 110.605469 C 198.132812 110.644531 198.167969 111.707031 198.1875 111.6875 C 197.382812 111.671875 197.460938 112.4375 197.476562 112.417969 C 196.375 112.472656 196.355469 113.5 196.375 113.480469 C 195.871094 113.445312 195.628906 113.6875 195.664062 114.171875 C 195.589844 114.246094 194.507812 114.191406 194.65625 115.347656 C 194.546875 115.945312 195.050781 116.132812 195.367188 116.453125 C 203.15625 124.96875 203.625 126.125 206.539062 128.386719 C 206.742188 128.589844 207.492188 130.925781 209.917969 132.25 C 211.152344 134.363281 213.507812 136.660156 214.925781 138.621094 C 216.195312 140.355469 216.832031 139.125 221.316406 135.164062 C 221.914062 134.640625 222.265625 133.949219 221.894531 133.257812 C 219.652344 129.226562 215.730469 125.0625 215.488281 124.929688 C 215.167969 123.976562 214.664062 123.175781 213.65625 122.800781 C 213.078125 120.523438 208.574219 116.46875 206.78125 114.957031 C 206.726562 114.902344 206.707031 115.125 206.351562 114.902344 C 205.269531 112.773438 203.417969 112.136719 201.363281 109.691406 C 200.296875 108.421875 200.207031 109.617188 200 109.878906 Z M 195.664062 90.847656 C 195.628906 90.902344 194.621094 90.902344 194.636719 91.984375 L 194.320312 92.398438 C 193.777344 92.320312 193.5 92.527344 193.609375 93.105469 L 190.210938 96.597656 C 189.277344 96.824219 188.679688 97.570312 188.605469 98.355469 C 188.53125 99.230469 189.652344 99.34375 190.25 99.792969 C 191.628906 100.855469 192.582031 100.519531 193.574219 99.101562 C 209.882812 75.832031 260.117188 42.867188 272.761719 38.105469 C 274.164062 37.582031 280.402344 36.144531 278.441406 32.953125 C 277.28125 31.046875 275.433594 31.589844 273.527344 32.746094 C 261.273438 40.214844 239.546875 51.871094 226.003906 62.964844 C 221.667969 65.019531 218.960938 68.585938 218.980469 68.566406 C 215.730469 70.246094 214.347656 72.65625 214.367188 72.65625 C 211.882812 73.722656 210.964844 75.792969 210.984375 75.773438 C 208.050781 77.027344 208.105469 78.59375 207.863281 78.855469 C 207.265625 78.652344 207.492188 78.464844 200.691406 85.226562 C 200.296875 85.617188 199.664062 85.898438 199.8125 86.644531 L 199.441406 87.019531 C 198.710938 87 198.335938 87.335938 198.355469 88.082031 L 196.394531 90.117188 C 195.871094 90.097656 195.628906 90.324219 195.664062 90.847656 Z M 141.15625 166.351562 C 141.171875 166.351562 140.203125 166.183594 140.015625 167.378906 C 139.976562 167.417969 139.324219 167.304688 139.269531 168.089844 L 138.894531 168.445312 C 138.390625 168.425781 138.148438 168.652344 138.164062 169.15625 C 135.269531 171.9375 134.988281 170.835938 132.335938 174.515625 C 132.152344 174.644531 132.167969 174.273438 130.300781 175.972656 C 110.667969 193.808594 110.742188 193.058594 111.789062 194.085938 C 112.367188 194.664062 113.019531 194.253906 113.542969 193.769531 C 113.5625 193.75 170.707031 143.867188 189.613281 123.957031 C 190.324219 123.210938 190.25 122.519531 189.390625 121.828125 C 188.585938 121.175781 187.96875 121.363281 187.351562 122.015625 C 174.480469 135.464844 164.675781 143.121094 157.894531 150.925781 C 157.371094 150.738281 157.128906 151.132812 156.828125 151.414062 C 152.25 155.652344 145.039062 162.152344 141.902344 165.699219 C 141.472656 165.699219 141.171875 165.867188 141.15625 166.351562 Z M 241.136719 95.496094 C 244.722656 93.648438 244.292969 92.902344 255.519531 82.050781 C 256.136719 82.21875 256.566406 82.085938 256.601562 81.359375 C 257.722656 80.050781 259.367188 79.25 260.171875 77.644531 L 260.132812 77.660156 C 260.695312 77.734375 260.882812 77.324219 261.085938 76.953125 C 263.046875 76.261719 263.890625 74.46875 265.4375 73.03125 C 263.925781 72.636719 263.308594 73.589844 262.617188 74.09375 C 210.425781 112.210938 216.773438 108.589844 210.667969 112.976562 C 209.566406 113.78125 209.976562 114.265625 210.945312 114.714844 L 212.347656 116.265625 C 213.414062 119.664062 215.039062 120.054688 217.523438 117.644531 C 228.394531 107.132812 228.617188 107.839844 228.414062 107.019531 L 228.449219 107 C 228.972656 107.242188 229.199219 106.8125 229.496094 106.554688 C 241.492188 95.890625 241.359375 96.226562 241.152344 95.535156 Z M 310.703125 24.433594 C 309.976562 22.808594 308.574219 23.222656 307.285156 23.371094 C 306.816406 23.425781 306.238281 23.390625 306.125 24.003906 C 306.03125 24.492188 306.203125 24.902344 306.59375 25.277344 C 309.917969 28.414062 312.535156 32.167969 315.726562 35.417969 C 316.25 35.9375 316.363281 37.265625 317.539062 36.742188 C 318.550781 36.3125 318.195312 35.171875 318.363281 34.332031 C 318.457031 33.902344 318.363281 33.324219 318.136719 32.933594 C 314.589844 27.011719 310.683594 24.417969 310.703125 24.433594 Z M 69.214844 235.695312 C 68.375 237.226562 67.214844 237.640625 66.503906 241.207031 C 65.945312 242.511719 66.1875 241.132812 65.292969 243.019531 C 62.433594 248.976562 61.367188 251.179688 58.175781 256.183594 C 57.296875 257.566406 57.726562 258.144531 59.292969 258.070312 C 61.835938 257.941406 59.816406 262.160156 63.066406 260.050781 C 70.691406 255.0625 78.855469 251.234375 87.707031 248.902344 C 89.96875 248.304688 88.121094 248.210938 90.25 247.910156 C 96.078125 249.070312 92.492188 240.757812 107.621094 228.320312 C 109.714844 226.601562 108.554688 226.339844 98.019531 214.707031 C 97.421875 214.03125 96.804688 213.828125 95.835938 214.40625 C 85.375 220.679688 77.152344 222.808594 75.339844 224.921875 C 71.753906 228.171875 69.8125 234.035156 69.8125 234.183594 C 69.175781 234.539062 68.652344 234.914062 69.214844 235.695312 Z M 115.582031 202.136719 C 115.394531 201.949219 115.765625 201.761719 115.394531 201.40625 C 109.640625 195.972656 109.621094 195.675781 109.042969 196.105469 C 108.910156 196.085938 108.089844 195.898438 107.867188 196.121094 C 98.429688 204.675781 97.796875 204.546875 99.515625 206.113281 C 109.675781 215.472656 113.019531 221.652344 115.320312 222.828125 L 115.992188 223.59375 C 116.105469 224.695312 117.300781 225.070312 117.652344 226.042969 C 118.664062 228.769531 119.933594 226.285156 128.378906 218.683594 C 129.253906 217.878906 129.144531 217.28125 128.320312 216.667969 C 127.425781 215.992188 126.917969 215.117188 126.453125 214.125 C 125.292969 211.660156 125.5 213.023438 123.445312 210.800781 C 123.164062 209.941406 122.136719 209.773438 121.765625 208.992188 C 121.390625 207.457031 118.140625 204.433594 117.636719 203.910156 C 117.039062 203.257812 116.757812 202.15625 115.582031 202.136719 Z M 204.59375 108.214844 C 205.378906 108.308594 205.285156 108.195312 209.976562 103.84375 C 272.40625 45.929688 291.835938 37.992188 289.648438 35.359375 C 288.976562 34.558594 288.0625 34.914062 287.238281 35.527344 C 252.121094 61.863281 233.53125 77.492188 204.015625 105.65625 C 202.859375 106.777344 203.082031 108.140625 204.59375 108.214844 Z M 173.453125 152.53125 C 171.828125 152.683594 171.886719 153.523438 162.507812 161.21875 C 148.8125 172.460938 133.792969 184.09375 118.644531 198.289062 C 116.664062 200.136719 118.363281 200.640625 122.269531 205.085938 C 123.203125 206.152344 123.875 205.910156 124.753906 204.976562 C 173.175781 153.988281 173.285156 154.269531 173.453125 152.53125 Z M 302.519531 25.835938 C 300.800781 26.378906 299.363281 27.496094 297.851562 28.433594 C 294.9375 30.207031 294.957031 30.242188 297.160156 32.707031 L 309.039062 46.378906 C 310.386719 47.929688 310.742188 46.417969 314.71875 41.019531 C 315.113281 40.476562 315.1875 40.085938 314.757812 39.449219 C 311.5625 34.6875 304.203125 25.667969 302.519531 25.835938 Z M 116.195312 228.878906 C 112.160156 222.027344 103.960938 213.640625 97.273438 207.796875 C 96.882812 207.457031 96.359375 207.234375 95.964844 207.609375 C 95.5 208.074219 96.058594 208.503906 96.339844 208.820312 C 103.53125 216.910156 107.453125 220.625 110.949219 225.164062 C 112.03125 226.5625 113.449219 227.742188 114.738281 228.992188 C 115.019531 229.253906 115.429688 229.515625 115.878906 229.347656 C 116.027344 229.292969 116.085938 229.046875 116.195312 228.878906 Z M 291.910156 34.371094 C 306.722656 50.5625 305.601562 51.308594 306.949219 50.449219 C 307.9375 49.816406 307.339844 48.917969 306.816406 48.132812 C 303.082031 42.457031 298.207031 37.730469 293.628906 32.765625 C 292.640625 31.679688 289.835938 32.109375 291.910156 34.371094 Z M 189.144531 104.347656 C 189.183594 102.257812 188.269531 101.378906 186.0625 101.324219 C 184.027344 101.285156 182.738281 102.480469 182.71875 104.425781 C 182.683594 108.253906 189.070312 109.355469 189.144531 104.347656 Z M 189.144531 104.347656 " fill-opacity="1" fill-rule="nonzero"/><path fill="#141415" d="M 276.386719 237.078125 C 274.6875 239.339844 261.328125 247.742188 257.648438 249.835938 C 212.234375 275.644531 157.707031 286.625 145.339844 287.617188 C 137.53125 288.230469 164.058594 282.070312 200.898438 270.0625 C 243.359375 256.203125 272.574219 237.339844 276.386719 237.078125 Z M 276.386719 237.078125 " fill-opacity="1" fill-rule="nonzero"/><path fill="#141415" d="M 276.667969 236.539062 C 277.226562 237.117188 276.367188 237.117188 276.460938 236.761719 C 276.480469 236.667969 276.59375 236.613281 276.667969 236.539062 Z M 276.667969 236.539062 " fill-opacity="1" fill-rule="nonzero"/><path fill="#141415" d="M 222.789062 188.820312 C 220.734375 191.378906 176.144531 218.535156 162.898438 231.8125 C 161.105469 233.625 161.253906 234.203125 163.589844 235.0625 C 165.253906 235.660156 166.972656 235.527344 168.617188 235.265625 C 174.238281 234.351562 168.726562 235.753906 195.796875 231.289062 C 196.300781 231.195312 197.046875 230.914062 197.214844 231.570312 C 197.402344 232.316406 196.691406 232.484375 196.058594 232.632812 C 192.488281 233.472656 169.230469 241.488281 160.078125 237.882812 C 157.613281 236.910156 157.144531 233.417969 159.050781 230.785156 C 167.402344 219.058594 221.222656 186.933594 222.789062 188.820312 Z M 222.789062 188.820312 " fill-opacity="1" fill-rule="nonzero"/><path fill="#141415" d="M 222.472656 188.429688 C 222.867188 187.867188 223.371094 187.8125 224.023438 187.925781 C 223.855469 188.691406 223.332031 188.765625 222.789062 188.820312 Z M 222.472656 188.429688 " fill-opacity="1" fill-rule="nonzero"/><path fill="#141415" d="M 129.835938 236.949219 C 129.664062 237.097656 129.742188 237.097656 129.574219 236.949219 C 129.722656 236.796875 129.664062 236.78125 129.835938 236.949219 Z M 129.835938 236.949219 " fill-opacity="1" fill-rule="nonzero"/><path fill="#141415" d="M 119.148438 112.527344 C 121.597656 112.679688 121.597656 116.339844 119.054688 116.507812 C 117.972656 116.582031 116.589844 115.332031 116.777344 114.433594 C 116.980469 113.3125 117.671875 112.546875 119.148438 112.527344 Z M 119.148438 112.527344 " fill-opacity="1" fill-rule="nonzero"/><path fill="#141415" d="M 149.5625 250.730469 C 147.65625 250.785156 147.414062 246.433594 150.160156 246.585938 C 152.753906 246.714844 153.746094 250.617188 149.5625 250.730469 Z M 149.5625 250.730469 " fill-opacity="1" fill-rule="nonzero"/><path fill="#141415" d="M 89.242188 248.078125 C 88.214844 249.683594 79.039062 249.648438 63.066406 260.070312 C 59.816406 262.179688 61.835938 257.957031 59.292969 258.089844 C 55.652344 258.277344 59.015625 255.792969 62.789062 248.152344 C 65.832031 241.972656 65.609375 242.007812 66.242188 241.824219 C 66.5625 243 64.433594 244.8125 64.992188 246.996094 C 69.980469 238.964844 73.023438 228.132812 77.191406 226.058594 C 82.234375 223.558594 87.074219 220.699219 92.191406 218.308594 C 93.890625 217.507812 95.910156 216.984375 97.125 215.304688 C 95.851562 214.050781 93.183594 217.972656 80.628906 222.792969 C 78.945312 223.445312 77.527344 224.734375 75.621094 224.789062 C 77.003906 222.828125 84.925781 220.980469 95.851562 214.425781 C 96.824219 213.847656 97.421875 214.050781 98.039062 214.722656 C 108.761719 226.5625 109.714844 226.640625 107.640625 228.339844 C 92.492188 240.777344 96.078125 249.085938 90.269531 247.929688 C 90.472656 246.847656 92.230469 248.191406 93.574219 244.902344 C 98.769531 232.296875 108.648438 227.796875 107.097656 226.527344 C 106.519531 226.058594 106.558594 226.695312 106.371094 226.84375 C 105.566406 227.535156 104.96875 228.523438 103.699219 228.507812 C 103.832031 228.636719 103.382812 228.394531 104.351562 227.3125 C 106.332031 225.089844 106.238281 224.734375 104.351562 222.550781 C 102.167969 220.007812 101.851562 222.753906 93.445312 229.886719 C 92.398438 230.785156 91.96875 231.570312 92.003906 232.894531 C 92.078125 235.679688 90.4375 237.136719 87.613281 236.554688 C 85.222656 236.070312 84.140625 237.863281 82.515625 239.246094 C 64.695312 254.28125 65.328125 255.960938 61.816406 258.371094 C 61.144531 258.816406 61.574219 259.769531 62.695312 259.117188 C 68.617188 255.660156 74.574219 252.242188 81.171875 250.207031 C 83.839844 249.40625 86.382812 248.136719 89.242188 248.078125 Z M 85.503906 231.027344 C 84.4375 234.578125 86.308594 235.773438 88.828125 235.585938 C 90.453125 235.453125 91.296875 234.652344 91.371094 232.96875 C 91.539062 229.644531 87.410156 229.71875 85.503906 231.027344 C 85.972656 228.523438 89.59375 230.394531 90.789062 229.347656 C 94.171875 226.378906 97.554688 223.40625 100.933594 220.4375 C 102.578125 218.980469 98.617188 216.667969 97.125 217.46875 C 77.601562 228.003906 77.582031 226.863281 70.035156 245.425781 C 69.53125 246.660156 68.449219 247.6875 68.375 249.40625 C 73.363281 245.332031 79.097656 240.140625 83.65625 235.601562 C 84.347656 234.929688 84.644531 234.410156 84.382812 233.457031 C 84.101562 232.429688 84.195312 231.421875 85.503906 231.027344 Z M 85.503906 231.027344 " fill-opacity="1" fill-rule="nonzero"/><path fill="#141415" d="M 210.105469 132.492188 C 212.421875 132.792969 213.507812 130.980469 214.945312 129.75 C 216.140625 128.722656 217.148438 127.675781 216.363281 125.957031 C 218.492188 128.179688 220.378906 130.589844 221.875 133.257812 C 222.265625 133.949219 221.914062 134.640625 221.296875 135.164062 C 216.851562 139.085938 216.175781 140.355469 214.90625 138.621094 C 213.394531 136.527344 211.453125 134.753906 210.105469 132.492188 Z M 210.105469 132.492188 " fill-opacity="1" fill-rule="nonzero"/><path fill="#141415" d="M 206.351562 114.917969 C 204.089844 115.855469 202.371094 117.554688 200.542969 119.046875 C 199.625 119.792969 200.054688 120.558594 200.765625 121.324219 C 207.003906 127.992188 206.726562 127.917969 206.519531 128.386719 C 203.566406 126.089844 203.269531 125.078125 195.347656 116.453125 C 196.523438 116.863281 197.328125 116.359375 198.039062 115.460938 C 199.347656 113.800781 201.476562 112.808594 202.109375 110.585938 C 203.566406 111.988281 205.398438 113.035156 206.351562 114.917969 Z M 206.351562 114.917969 " fill-opacity="1" fill-rule="nonzero"/><path fill="#141415" d="M 85.503906 231.027344 C 87.410156 229.703125 91.519531 229.628906 91.386719 232.96875 C 91.3125 234.652344 90.472656 235.453125 88.847656 235.585938 C 86.324219 235.773438 84.4375 234.59375 85.503906 231.027344 Z M 85.503906 231.027344 " fill-opacity="1" fill-rule="nonzero"/><g fill="#000000" fill-opacity="1"><g transform="translate(176.701164, 352.399986)"><g><path d="M 0.609375 0 L 0.609375 -0.15625 L 0.8125 -0.15625 C 1.6875 -0.15625 2.125 -0.539062 2.125 -1.3125 L 2.125 -10.171875 C 2.125 -10.898438 1.6875 -11.265625 0.8125 -11.265625 L 0.609375 -11.265625 L 0.609375 -11.421875 L 5.265625 -11.421875 L 5.265625 -11.265625 L 5.0625 -11.265625 C 4.1875 -11.265625 3.75 -10.878906 3.75 -10.109375 L 3.75 -0.15625 L 6.703125 -0.15625 C 7.265625 -0.15625 7.710938 -0.238281 8.046875 -0.40625 C 8.390625 -0.570312 8.640625 -0.859375 8.796875 -1.265625 C 8.960938 -1.671875 9.066406 -2.21875 9.109375 -2.90625 L 9.140625 -3.4375 L 9.296875 -3.4375 L 9.1875 0 Z M 0.609375 0 "/></g></g></g><g fill="#000000" fill-opacity="1"><g transform="translate(186.66677, 352.399986)"><g><path d="M 0.609375 0 L 0.609375 -0.15625 L 0.8125 -0.15625 C 1.6875 -0.15625 2.125 -0.539062 2.125 -1.3125 L 2.125 -10.171875 C 2.125 -10.898438 1.6875 -11.265625 0.8125 -11.265625 L 0.609375 -11.265625 L 0.609375 -11.421875 L 5.5 -11.421875 C 7.144531 -11.421875 8.425781 -10.925781 9.34375 -9.9375 C 10.257812 -8.945312 10.71875 -7.546875 10.71875 -5.734375 C 10.71875 -4.554688 10.519531 -3.539062 10.125 -2.6875 C 9.738281 -1.832031 9.160156 -1.171875 8.390625 -0.703125 C 7.617188 -0.234375 6.65625 0 5.5 0 Z M 3.75 -0.15625 L 5.140625 -0.15625 C 6.472656 -0.15625 7.4375 -0.59375 8.03125 -1.46875 C 8.632812 -2.351562 8.9375 -3.773438 8.9375 -5.734375 C 8.9375 -7.671875 8.632812 -9.078125 8.03125 -9.953125 C 7.4375 -10.828125 6.476562 -11.265625 5.15625 -11.265625 L 3.75 -11.265625 Z M 3.75 -0.15625 "/></g></g></g></svg>